<svg xmlns="http://www.w3.org/2000/svg" xmlns:xlink="http://www.w3.org/1999/xlink" xml:space="preserve" version="1.1" style="shape-rendering:geometricPrecision;text-rendering:geometricPrecision;image-rendering:optimizeQuality;" viewBox="0 0 326 407.5" x="0px" y="0px" fill-rule="evenodd" clip-rule="evenodd"><defs><style type="text/css">
   
    .fil0 {fill:#d82822;fill-rule:nonzero}
   
  </style></defs><g><path class="fil0" d="M163 0c90,0 163,73 163,163 0,90 -73,163 -163,163 -90,0 -163,-73 -163,-163 0,-90 73,-163 163,-163zm0 20c-79,0 -143,64 -143,143 0,79 64,143 143,143 79,0 143,-64 143,-143 0,-79 -64,-143 -143,-143z"/><path class="fil0" d="M116 164l21 21 73 -81c2,-3 7,-4 10,-1l12 10c3,3 3,8 0,11l-89 99c-3,3 -8,3 -11,0l-37 -38c-3,-3 -3,-7 0,-10l10 -11c2,-1 3,-2 6,-2 2,0 3,1 5,2z"/></g></svg>